<?xml version="1.0" encoding="UTF-8"?>
<svg version="1.1" xmlns="http://www.w3.org/2000/svg" width="1024" height="1024">
<path d="M0 0 C0.85112647 -0.00438225 1.70225294 -0.00876451 2.57917112 -0.01327956 C5.41789033 -0.0265848 8.25657857 -0.03282749 11.09532166 -0.03897095 C13.13585548 -0.04687795 15.17638794 -0.05514727 17.21691895 -0.06375122 C23.9028542 -0.08988484 30.58879549 -0.10526231 37.27476501 -0.11953735 C39.57866863 -0.12489911 41.88257221 -0.13027662 44.18647575 -0.13566971 C53.76619583 -0.15727865 63.34591426 -0.17601771 72.9256525 -0.1872921 C86.64967961 -0.20355233 100.37342464 -0.23680324 114.09734541 -0.29369295 C123.75270217 -0.33235428 133.40798332 -0.35191982 143.06341547 -0.35721266 C148.82938317 -0.36086902 154.59504938 -0.37292256 160.3609333 -0.4053154 C165.78076747 -0.43533164 171.20011661 -0.44173078 176.6200161 -0.42993164 C178.60902843 -0.42971042 180.59806289 -0.43805526 182.58699799 -0.45558548 C185.30231904 -0.47821661 188.01587181 -0.47001093 190.73120117 -0.45410156 C191.51826653 -0.46798365 192.30533189 -0.48186574 193.11624771 -0.49616849 C197.06533592 -0.4391473 199.60162749 -0.01712562 202.77604294 2.43108273 C205.90959872 5.80870661 206.19573252 7.29102605 206.39984703 11.69616508 C206.22731474 16.03467736 205.42591747 20.15187834 204.49473572 24.38461304 C204.28960987 25.36984766 204.08448402 26.35508228 203.87314224 27.3701725 C203.19199373 30.62521517 202.49129947 33.87571669 201.79039001 37.1265564 C201.30433003 39.42967539 200.81948595 41.73305129 200.33578491 44.03666687 C199.04426718 50.17034548 197.73583296 56.30029652 196.42367554 62.42958832 C195.07803238 68.7278292 193.7470144 75.02915895 192.41441345 81.33016968 C190.32850389 91.18391335 188.23349091 101.03567457 186.13072205 110.88583374 C183.95318455 121.08655616 181.79278627 131.29071974 179.64858055 141.4984951 C178.69522053 146.03302604 177.73628535 150.56637825 176.77705383 155.09967041 C176.29821048 157.36475769 175.82082639 159.630154 175.34498596 161.89587402 C174.7066912 164.92855659 174.06045495 167.95942467 173.41148376 170.98983765 C173.15050148 172.24139397 173.15050148 172.24139397 172.88424683 173.51823425 C171.0289487 182.0874748 168.79998616 190.51487575 161.11851501 195.59921265 C155.7989427 198.65643812 151.56863092 200.24732596 145.40464783 200.35922241 C144.40986923 200.37915756 143.41509064 200.39909271 142.39016724 200.41963196 C141.29376419 200.43635452 140.19736115 200.45307709 139.06773376 200.4703064 C137.30209831 200.501614 137.30209831 200.501614 135.50079346 200.53355408 C132.21249355 200.58918935 128.92420774 200.63967015 125.63577652 200.68653107 C123.54967225 200.71643507 121.46359571 200.74789292 119.3775177 200.77957153 C91.95654891 201.18884724 64.53452408 201.26310199 37.11087036 201.2768364 C33.86858373 201.27889762 30.6263026 201.28265917 27.38401794 201.28674316 C22.22347248 201.29263064 17.06295715 201.29272593 11.90241051 201.28828239 C9.98788153 201.28724924 8.07335095 201.28779305 6.15882301 201.29004097 C-11.16960366 201.30686885 -11.16960366 201.30686885 -18.70791626 200.38525391 C-21.81013917 200.02459061 -24.90551818 199.9899555 -28.02601624 199.94296265 C-29.96734436 199.90042358 -29.96734436 199.90042358 -31.94789124 199.85702515 C-33.95765929 199.81564757 -35.96716003 199.77864978 -37.97718811 199.75253296 C-39.95202214 199.72481264 -41.92655622 199.67784969 -43.90101624 199.63046265 C-45.06278381 199.61064331 -46.22455139 199.59082397 -47.42152405 199.57040405 C-51.78653009 199.01550835 -55.27733535 197.64531511 -58.34242249 194.42733765 C-58.72785217 193.80085327 -59.11328186 193.1743689 -59.51039124 192.52890015 C-59.90871155 191.91788452 -60.30703186 191.3068689 -60.71742249 190.67733765 C-63.27769537 184.08795006 -62.79478143 177.5891543 -61.28382874 170.8296814 C-61.11828491 170.03567429 -60.95274109 169.24166718 -60.78218079 168.42359924 C-60.22532192 165.76829096 -59.6490194 163.11758859 -59.07289124 160.46640015 C-58.66580944 158.54350205 -58.26008896 156.62031535 -57.85560608 154.6968689 C-56.96564207 150.47480608 -56.06774746 146.25452854 -55.16468811 142.0352478 C-53.61679389 134.79171285 -52.10073794 127.54167309 -50.58851624 120.2906189 C-48.95082617 112.44062971 -47.31179156 104.59096892 -45.65858459 96.74423218 C-45.52094035 96.09090031 -45.38329611 95.43756844 -45.24148083 94.76443863 C-44.68598064 92.12809413 -44.1304077 89.49176498 -43.5747509 86.85545349 C-41.80668165 78.46392276 -40.05675484 70.06884642 -38.32795715 61.66912842 C-37.33731862 56.86019852 -36.33913809 52.05285063 -35.33992004 47.24569702 C-34.87540729 45.00116237 -34.4144278 42.75589318 -33.95722961 40.50985718 C-33.32665287 37.4139473 -32.68358504 34.320873 -32.03773499 31.2281189 C-31.85906387 30.33408859 -31.68039276 29.44005829 -31.49630737 28.51893616 C-29.52615368 19.21633119 -26.27104342 12.04944126 -19.69789124 5.15390015 C-18.73882874 3.97827515 -18.73882874 3.97827515 -17.76039124 2.77890015 C-13.09381477 -0.89779646 -5.74634423 0.00364444 0 0 Z " fill="#02ACC4" transform="translate(352.69789123535156,478.8460998535156)"/>
<path d="M0 0 C3.79825796 -0.02543824 7.59653135 -0.04322091 11.39483684 -0.05987233 C13.16109765 -0.0695754 14.92734327 -0.08282774 16.69354743 -0.09998173 C39.37653501 -0.31766769 39.37653501 -0.31766769 47.35531074 6.30742353 C51.82184474 10.82436988 53.30139289 15.16824049 53.34334785 21.49150556 C53.24581139 28.37509083 51.97003303 34.78960127 50.46468574 41.48711103 C50.17325906 42.82826101 49.88303011 44.1696717 49.59386665 45.51131147 C48.96104762 48.43662025 48.32071491 51.36014397 47.67449409 54.28252119 C46.62402028 59.03428833 45.59015067 63.78956967 44.55965644 68.54570478 C44.37886511 69.37997118 44.19807378 70.21423757 44.01180393 71.07378477 C43.63463854 72.81429542 43.25751947 74.5548161 42.88044387 76.2953462 C42.28538761 79.03935466 41.68868321 81.78300101 41.09174567 84.52660078 C37.66484707 100.29338629 34.31747144 116.07671344 30.98714691 131.86412376 C30.56307239 133.87427385 30.13882156 135.88438665 29.71450835 137.89448637 C27.30958319 149.28737644 24.90557234 160.68045971 22.50592834 172.07446343 C21.02218507 179.11955422 19.53537726 186.16399135 18.04546195 193.20777982 C17.54430554 195.57999629 17.04432045 197.95246055 16.54559165 200.32518858 C15.85582446 203.60636106 15.162049 206.88666271 14.46737128 210.16679853 C14.26949295 211.11296474 14.07161462 212.05913095 13.86773998 213.03396887 C8.75108555 237.08843671 8.75108555 237.08843671 0.08577949 245.05742353 C-5.02315576 248.26986009 -9.97312078 250.12917094 -16.01968926 250.37382978 C-17.4940545 250.43667158 -17.4940545 250.43667158 -18.99820489 250.50078291 C-20.02236504 250.54009931 -21.0465252 250.57941572 -22.10172051 250.61992353 C-23.13748223 250.66310713 -24.17324395 250.70629072 -25.24039239 250.75078291 C-27.79820458 250.85686728 -30.35613617 250.95818812 -32.91422051 251.05742353 C-32.37416993 244.53352419 -31.47269293 238.22774714 -30.07925957 231.83403486 C-29.89493528 230.96698927 -29.71061099 230.09994367 -29.52070111 229.20662397 C-28.91212173 226.34979823 -28.29597828 223.49466012 -27.67984551 220.63945478 C-27.24487733 218.60422031 -26.81043576 216.56887322 -26.37648553 214.53342146 C-25.45500084 210.2152072 -24.53045333 205.89766502 -23.60352105 201.58061689 C-22.15879493 194.84976971 -20.72346964 188.11694159 -19.29044122 181.38359541 C-19.05308031 180.26847011 -18.8157194 179.15334482 -18.57116574 178.00442785 C-18.09243808 175.75530184 -17.61373326 173.50617096 -17.13505143 171.2570352 C-16.18234213 166.78191346 -15.22857941 162.30701653 -14.27478665 157.8321256 C-9.28521752 134.44831147 -9.28521752 134.44831147 -4.35732239 111.05145067 C-3.66806147 107.75385283 -2.97392056 104.45749987 -2.2720086 101.16255659 C-1.51092223 97.58791795 -0.76351136 94.01068812 -0.01968926 90.43242353 C0.1980062 89.42543913 0.41570167 88.41845472 0.63999397 87.38095564 C2.76694053 76.98516699 3.22822731 68.5352927 -1.91422051 59.05742353 C-2.25324395 58.33554853 -2.59226739 57.61367353 -2.94156426 56.86992353 C-4.24397704 54.44293748 -5.3702639 54.08875729 -7.91422051 53.05742353 C-9.04859551 52.54179853 -10.18297051 52.02617353 -11.35172051 51.49492353 C-17.28321601 49.10151307 -22.55820631 48.90653921 -28.86754388 48.89920515 C-30.22152434 48.89179818 -30.22152434 48.89179818 -31.60285795 48.88424158 C-34.62762345 48.86888291 -37.65236775 48.86051035 -40.67715997 48.85210127 C-42.84535949 48.84252147 -45.01355715 48.83251132 -47.18175286 48.82210249 C-53.06968683 48.79505845 -58.95762881 48.77404613 -64.84559053 48.7541005 C-70.99821737 48.7322379 -77.15081952 48.70485054 -83.30342644 48.67804426 C-94.95509967 48.62812111 -106.6067866 48.58318086 -118.25848663 48.5400219 C-131.5231791 48.49064631 -144.78784681 48.43572936 -158.05251533 48.3803423 C-185.33972729 48.26652805 -212.626963 48.15968777 -239.91422051 48.05742353 C-241.68825502 42.73532001 -239.43510122 37.23017642 -238.22672051 31.86992353 C-237.96955254 30.6627165 -237.71238457 29.45550947 -237.44742364 28.21172041 C-233.79259607 11.78744614 -233.79259607 11.78744614 -227.66422051 6.74492353 C-227.14343926 6.29504072 -226.62265801 5.84515791 -226.08609551 5.38164228 C-219.98385417 1.6610311 -214.36006254 0.61376248 -207.36955804 0.65869612 C-206.5463555 0.65204929 -205.72315296 0.64540246 -204.87500489 0.63855422 C-202.13477476 0.62000421 -199.39498451 0.62252449 -196.65469903 0.62505049 C-194.6806531 0.6160256 -192.70661277 0.60569661 -190.73257989 0.5941667 C-185.37301882 0.56657973 -180.01356398 0.557304 -174.65394109 0.55131263 C-169.00229138 0.5418823 -163.35071896 0.51565122 -157.69911736 0.4913072 C-146.95345633 0.44758546 -136.2078102 0.41909999 -125.46208727 0.39598382 C-113.39703624 0.36926413 -101.33206989 0.32514821 -89.26707727 0.27969509 C-47.11966364 0.12229464 -47.11966364 0.12229464 -26.43026608 0.09220308 C-24.46163019 0.08929646 -22.49299431 0.08638053 -20.52435845 0.08345503 C-19.08320216 0.08139064 -19.08320216 0.08139064 -17.61293161 0.07928455 C-11.74179093 0.06882337 -5.87100478 0.04103151 0 0 Z " fill="#005D8E" transform="translate(656.9142205119133,337.9425764679909)"/>
<path d="M0 0 C3 0.125 3 0.125 4 1.125 C5.77233816 1.18809599 7.54713913 1.18427863 9.3203125 1.15234375 C10.4134375 1.14009766 11.5065625 1.12785156 12.6328125 1.11523438 C14.93756825 1.08043102 17.24226526 1.04145562 19.546875 0.99804688 C32.43904581 0.86972902 32.43904581 0.86972902 37.875 4.3125 C41.42956435 10.03929812 39.59528135 16.66922837 38.24023438 22.79882812 C38.03985376 23.75030794 37.83947315 24.70178776 37.6330204 25.6821003 C36.96447831 28.84265138 36.27913425 31.99931216 35.59375 35.15625 C35.11620862 37.39767489 34.63973971 39.63932851 34.16427612 41.88119507 C32.88715511 47.88904825 31.59574744 53.89374774 30.30168915 59.89797211 C28.96547344 66.10999732 27.64260914 72.32486193 26.31884766 78.53955078 C24.20576538 88.45374252 22.08609082 98.36650015 19.96191406 108.27832031 C17.38793724 120.29300609 14.8371175 132.31243087 12.3046875 144.3359375 C12.13107445 145.1599984 11.9574614 145.9840593 11.77858734 146.83309174 C10.95197971 150.75704597 10.125837 154.68109784 9.30004883 158.60522461 C8.40349456 162.86528017 7.50589261 167.12511386 6.60742188 171.38476562 C6.46796017 172.04633541 6.32849846 172.7079052 6.18481064 173.38952255 C5.52021094 176.53978559 4.85202044 179.68922821 4.17901611 182.83770752 C2.9767378 188.46244747 1.8036473 194.08878898 0.70800781 199.73535156 C0.49923004 200.77684357 0.29045227 201.81833557 0.0753479 202.89138794 C-0.30523475 204.79271065 -0.67194607 206.69690308 -1.01992798 208.60446167 C-2.58687992 216.28769558 -5.97563469 223.64987337 -11.8125 229.0625 C-21.95840043 235.6274944 -33.33129004 235.25848577 -45 235.125 C-43.68194552 226.80553657 -42.11210404 218.56783734 -40.35791016 210.33007812 C-39.97209023 208.50295288 -39.97209023 208.50295288 -39.57847595 206.63891602 C-39.02364027 204.01318099 -38.46789677 201.38765924 -37.91051102 198.76246643 C-37.02452217 194.589548 -36.14221999 190.41585499 -35.26034546 186.24206543 C-33.86112185 179.62184032 -32.45948564 173.00212876 -31.05679929 166.38263655 C-28.55457125 154.57402561 -26.05579702 142.76468404 -23.5589031 130.95494413 C-22.82744777 127.49575408 -22.0954319 124.03668456 -21.36207962 120.57789612 C-19.79291151 113.17660347 -18.23405333 105.77326826 -16.68573761 98.36758423 C-16.03615776 95.29597588 -15.36586699 92.22965173 -14.68963623 89.16381836 C-14.30892091 87.38987195 -13.92846864 85.61586906 -13.54833984 83.84179688 C-13.37298517 83.07629768 -13.1976305 82.31079849 -13.01696205 81.52210236 C-11.18494706 72.80632705 -12.35093546 65.85099036 -17.18359375 58.36328125 C-20.82466628 53.87654026 -25.36738503 51.25959888 -31 50.125 C-33.3135776 49.97883137 -35.63084131 49.88886528 -37.94824219 49.82836914 C-38.67893669 49.80910055 -39.4096312 49.78983196 -40.16246796 49.76997948 C-42.70716207 49.70618564 -45.25194557 49.65121748 -47.796875 49.59765625 C-49.17440571 49.56702937 -49.17440571 49.56702937 -50.57976532 49.53578377 C-84.85835289 48.79281725 -119.15375549 48.78077966 -153.43875265 48.60759032 C-163.33794444 48.55743584 -173.23711026 48.50281301 -183.13627672 48.44791877 C-203.42416026 48.33551044 -223.71206862 48.22838997 -244 48.125 C-243.79160901 47.50787392 -243.58321802 46.89074783 -243.36851215 46.25492096 C-243.09643027 45.44493401 -242.82434839 44.63494705 -242.54402161 43.80041504 C-242.27375562 42.99766396 -242.00348963 42.19491287 -241.72503376 41.367836 C-240.93427725 38.92169176 -240.32986749 36.4888761 -239.82421875 33.96875 C-237.54235427 23.19449353 -235.66258359 14.64238914 -227.5625 6.75 C-220.0350578 1.97650007 -214.00437324 1.68210771 -205.20507812 1.69262695 C-203.28247414 1.67733948 -203.28247414 1.67733948 -201.32102966 1.66174316 C-197.79817169 1.63413926 -194.2754756 1.62486879 -190.75252342 1.61888909 C-186.98603667 1.60938019 -183.21966271 1.58310675 -179.45324707 1.55888367 C-173.06080951 1.52005684 -166.66840051 1.49193869 -160.27587891 1.47143555 C-151.53848742 1.4434102 -142.80126937 1.39763742 -134.06398201 1.34725976 C-108.38730665 1.20118485 -82.71074452 1.10446152 -57.03362942 1.13871014 C-54.50419328 1.14205332 -51.97475701 1.14489044 -49.44532013 1.14761257 C-42.22084462 1.15584967 -34.99642065 1.16630619 -27.77197742 1.19003725 C-24.85536893 1.19876094 -21.93876284 1.20360336 -19.02214432 1.20750833 C-17.01840451 1.21158091 -15.01467755 1.22089664 -13.01095581 1.23032951 C-11.83022491 1.23139765 -10.64949402 1.23246578 -9.4329834 1.23356628 C-8.4016201 1.23672946 -7.37025681 1.23989264 -6.30764008 1.24315166 C-3.323355 1.09035563 -3.22366261 0.13431928 0 0 Z " fill="#008EB3" transform="translate(596,407.875)"/>
<path d="M0 0 C12.70846761 -0.09261231 25.41685515 -0.16372062 38.12559128 -0.20724869 C44.02655696 -0.22813825 49.92729204 -0.25648131 55.828125 -0.30175781 C61.52099123 -0.34516607 67.21363543 -0.36912679 72.90665436 -0.37950897 C75.08043158 -0.38690932 77.25419643 -0.40136019 79.42787933 -0.42292023 C82.46878987 -0.45188698 85.50877876 -0.45595876 88.54980469 -0.45410156 C89.45179596 -0.46848267 90.35378723 -0.48286377 91.28311157 -0.49768066 C94.95230522 -0.47337518 97.31834452 -0.39524202 100.52813721 1.46588135 C104.51034253 8.32207802 102.8113524 15.87271284 101.19262695 23.23071289 C100.98750111 24.21594751 100.78237526 25.20118214 100.57103348 26.21627235 C99.88988497 29.47131503 99.1891907 32.72181655 98.48828125 35.97265625 C98.00222127 38.27577525 97.51737719 40.57915115 97.03367615 42.88276672 C95.74215841 49.01644533 94.43372419 55.14639637 93.12156677 61.27568817 C91.77592362 67.57392906 90.44490564 73.8752588 89.11230469 80.17626953 C87.02639513 90.0300132 84.93138215 99.88177442 82.82861328 109.73193359 C80.65107579 119.93265601 78.4906775 130.13681959 76.34647179 140.34459496 C75.39311176 144.87912589 74.43417658 149.4124781 73.47494507 153.94577026 C72.99610172 156.21085754 72.51871763 158.47625386 72.0428772 160.74197388 C71.40458244 163.77465645 70.75834618 166.80552452 70.109375 169.8359375 C69.84839272 171.08749382 69.84839272 171.08749382 69.58213806 172.36433411 C67.72683994 180.93357465 65.4978774 189.3609756 57.81640625 194.4453125 C52.49683393 197.50253797 48.26652215 199.09342581 42.10253906 199.20532227 C41.10776047 199.22525742 40.11298187 199.24519257 39.08805847 199.26573181 C37.99165543 199.28245438 36.89525238 199.29917694 35.765625 199.31640625 C33.99998955 199.34771385 33.99998955 199.34771385 32.19868469 199.37965393 C28.91038478 199.4352892 25.62209897 199.48577 22.33366776 199.53263092 C20.24756349 199.56253493 18.16148694 199.59399277 16.07540894 199.62567139 C-11.34555985 200.0349471 -38.76758469 200.10920184 -66.1912384 200.12293625 C-69.43352504 200.12499747 -72.67580616 200.12875902 -75.91809082 200.13284302 C-81.07863629 200.1387305 -86.23915161 200.13882579 -91.39969826 200.13438225 C-93.31422723 200.1333491 -95.22875782 200.1338929 -97.14328575 200.13614082 C-114.47171242 200.15296871 -114.47171242 200.15296871 -122.01002502 199.23135376 C-125.11224793 198.87069046 -128.20762695 198.83605536 -131.328125 198.7890625 C-133.26945312 198.74652344 -133.26945312 198.74652344 -135.25 198.703125 C-137.25976806 198.66174742 -139.26926879 198.62474964 -141.27929688 198.59863281 C-143.25413091 198.57091249 -145.22866499 198.52394954 -147.203125 198.4765625 C-148.36489258 198.45674316 -149.52666016 198.43692383 -150.72363281 198.41650391 C-155.08863886 197.8616082 -158.57944412 196.49141496 -161.64453125 193.2734375 C-164.614643 188.44576422 -166.46717392 183.77379044 -166 178 C-165.01 177.01 -165.01 177.01 -164 176 C-163.91363281 176.79664063 -163.82726562 177.59328125 -163.73828125 178.4140625 C-162.84766052 185.13048671 -162.15824439 189.44155147 -157 194 C-152.7083791 196.24896709 -148.60533248 196.28680157 -143.86651611 196.26742554 C-142.64456736 196.27422221 -142.64456736 196.27422221 -141.39793277 196.28115618 C-138.67050415 196.29380789 -135.94327502 196.29217931 -133.21582031 196.29052734 C-131.25926456 196.29651218 -129.30271117 196.30331762 -127.34616089 196.31088257 C-122.03195995 196.32855596 -116.71782341 196.33323856 -111.40359592 196.33451414 C-108.08227684 196.33593572 -104.76097413 196.34020549 -101.43965912 196.34550858 C-89.84908509 196.3640144 -78.25855707 196.37217863 -66.66796875 196.37060547 C-55.87014022 196.36940444 -45.07251171 196.39049794 -34.27473378 196.4220928 C-24.99982491 196.44826285 -15.72498132 196.45897243 -6.45003581 196.45769465 C-0.9125953 196.45718516 4.62466754 196.46286091 10.16207123 196.48405075 C15.37256202 196.50344488 20.5827059 196.50354941 25.79320908 196.48901749 C27.70193108 196.48692965 29.61067486 196.49162877 31.51935959 196.5037384 C46.15698916 196.92846804 46.15698916 196.92846804 58.81722641 190.41794395 C65.82055439 183.481286 66.67496752 172.25562883 68.4375 163 C69.88695189 155.56002622 71.3719244 148.13909765 73.0625 140.75 C74.81568301 133.08382501 76.29478098 125.37609225 77.69360352 117.63769531 C77.85014404 116.7865918 78.00668457 115.93548828 78.16796875 115.05859375 C78.30485107 114.29861084 78.4417334 113.53862793 78.58276367 112.75561523 C79 111 79 111 80 110 C80.39264831 108.29174445 80.73290786 106.57139237 81.05078125 104.84765625 C81.25268066 103.76983887 81.45458008 102.69202148 81.66259766 101.58154297 C81.87706543 100.42025879 82.0915332 99.25897461 82.3125 98.0625 C83.8022733 90.13828886 85.32631362 82.23530369 87.125 74.375 C88.69927458 67.49469204 90.05084965 60.59699667 91.2890625 53.6484375 C91.89265639 50.55087326 92.62097669 47.51978193 93.40234375 44.46386719 C94.64895989 39.32463103 95.70835126 34.14378224 96.76928711 28.96362305 C97.04867139 27.6100853 97.33287441 26.25753347 97.62182617 24.90600586 C98.04437839 22.92779113 98.45144003 20.94691429 98.85546875 18.96484375 C99.09934326 17.7955835 99.34321777 16.62632324 99.59448242 15.42163086 C100.04388693 11.62969578 99.93588245 8.70487075 99 5 C97.22943323 2.99184528 95.77784841 2.11563455 93.11652851 1.72000408 C90.68165532 1.58884201 88.26363939 1.5636228 85.82519531 1.56762695 C84.898022 1.5574353 83.97084869 1.54724365 83.01557922 1.53674316 C79.95303339 1.50656539 76.89080011 1.49733982 73.828125 1.48828125 C71.70390784 1.47143813 69.57970067 1.45328839 67.45550537 1.43388367 C61.86601889 1.38633782 56.27657291 1.35655801 50.68695068 1.33044434 C44.98262534 1.30066203 39.27843959 1.25412368 33.57421875 1.20898438 C22.38288545 1.12289903 11.19152347 1.05557693 0 1 C0 0.67 0 0.34 0 0 Z " fill="#0783A3" transform="translate(456,480)"/>
<path d="M0 0 C3.7893664 -0.02651992 7.57874366 -0.04467618 11.36816639 -0.06098223 C13.14046104 -0.07040751 14.91274119 -0.08334073 16.68498152 -0.1001153 C39.49016126 -0.31175044 39.49016126 -0.31175044 47.4689334 6.3133378 C51.85752739 10.75146445 53.41519047 15.08660081 53.49823028 21.30650187 C53.38776534 29.26631548 51.64514369 36.82085897 49.91815215 44.5477128 C49.58076626 46.09974439 49.24448188 47.65201579 48.90924102 49.20451212 C48.03240918 53.25100851 47.14084908 57.29411487 46.24597198 61.33665323 C45.33204643 65.47794534 44.43237768 69.62233101 43.5314334 73.7664628 C41.76787224 81.86848082 39.98870841 89.96696673 38.19940215 98.0633378 C37.53940215 98.0633378 36.87940215 98.0633378 36.19940215 98.0633378 C36.28983745 96.47916086 36.39789732 94.89599318 36.51190215 93.3133378 C36.56990997 92.43161905 36.62791778 91.5499003 36.6876834 90.6414628 C37.13202327 87.53447566 37.77207127 84.67045833 38.5548709 81.63755655 C40.42865986 74.36178762 41.81672538 67.0064152 43.19940215 59.6258378 C44.82103339 50.99297411 46.51804344 42.39594588 48.55096465 33.84824991 C50.21559321 26.69899616 51.56402729 19.74782566 48.94940215 12.6883378 C46.2721787 8.67250262 43.68475517 5.91502417 39.19940215 4.0633378 C36.66108364 3.74158922 36.66108364 3.74158922 33.86830169 3.75341654 C32.77974443 3.7353426 31.69118716 3.71726866 30.56964332 3.69864702 C29.37278844 3.68888023 28.17593356 3.67911345 26.94281036 3.66905069 C25.6686218 3.65119705 24.39443324 3.63334341 23.08163291 3.61494875 C19.53514177 3.56595734 15.98861869 3.52976814 12.44195372 3.49603009 C9.39791655 3.46559872 6.35398226 3.42805492 3.31002367 3.39068156 C-35.36211081 2.91849864 -74.03799374 2.7397394 -112.71230847 2.54592717 C-122.79338982 2.49528781 -132.87444992 2.44086414 -142.95551044 2.38625658 C-163.57051969 2.27466622 -184.18554934 2.16740758 -204.80059785 2.0633378 C-204.80059785 1.7333378 -204.80059785 1.4033378 -204.80059785 1.0633378 C-179.9534777 0.93163936 -155.1063512 0.80120063 -130.25921696 0.67218637 C-118.7174248 0.61222959 -107.17563489 0.55188908 -95.6338498 0.4905839 C-85.55213245 0.43703503 -75.47041133 0.3842685 -65.38868535 0.33237076 C-60.07043086 0.3049685 -54.75217876 0.27722277 -49.43393105 0.24853373 C-38.70168537 0.1908677 -27.96946235 0.13884637 -17.23713148 0.09976768 C-11.49130619 0.07778977 -5.74570488 0.04300864 0 0 Z " fill="#063E6C" transform="translate(656.800597846508,337.93666219711304)"/>
<path d="M0 0 C0.33 0 0.66 0 1 0 C1.1321403 4.75705095 0.73625452 8.8789416 -0.375 13.5 C-1.82270046 19.8753194 -2.72339961 26.15371935 -3.53125 32.63671875 C-4.07664428 36.54992272 -4.92511566 40.20207534 -6 44 C-6.75794355 46.87901038 -7.33755787 49.75985471 -7.875 52.6875 C-8.52978717 56.03473293 -9.34340662 59.168082 -10.5 62.375 C-12.7373382 68.73672427 -13.49270117 75.39817834 -14.4296875 82.05078125 C-14.98274315 84.91076081 -15.82712492 87.34148315 -17 90 C-13.83205101 89.94750256 -10.66670122 89.85229512 -7.5 89.75 C-6.613125 89.73582031 -5.72625 89.72164062 -4.8125 89.70703125 C2.22640933 89.44824782 7.54966475 87.90804287 12.98828125 83.32421875 C13.42527344 82.78410156 13.86226562 82.24398437 14.3125 81.6875 C14.76238281 81.15511719 15.21226562 80.62273437 15.67578125 80.07421875 C20.09499569 73.1520864 20.9304525 66.14660625 22 58.125 C22.93336005 51.17225861 23.8945276 44.567879 26.29541016 37.95751953 C28.81687396 30.95228851 30.52001595 23.45356201 30 16 C30.66 16 31.32 16 32 16 C32.185625 14.2675 32.185625 14.2675 32.375 12.5 C32.90278885 8.21649625 33.88398037 4.16647328 35 0 C35.33 0 35.66 0 36 0 C36.45587292 7.85475293 34.75699767 15.21355598 33.1484375 22.8671875 C32.84876652 24.31150015 32.54925978 25.75584689 32.24990845 27.20022583 C31.62188544 30.21890033 30.98700992 33.23604411 30.34814453 36.25244141 C29.53657221 40.0903669 28.74968227 43.93289755 27.96890831 47.77718925 C27.35876091 50.7604583 26.73156853 53.73996312 26.09981155 56.7187233 C25.80276107 58.13263339 25.51169708 59.54781666 25.22712326 60.96429062 C23.26190389 70.70035193 20.66806655 79.9224309 13.1875 86.9375 C3.04159957 93.5024944 -8.33129004 93.13348577 -20 93 C-18.4260071 82.70400476 -16.28823489 72.54628259 -14.12109375 62.36328125 C-13.74508396 60.58923333 -13.36919597 58.8151596 -12.99342346 57.0410614 C-12.21101063 53.350319 -11.42661219 49.66000549 -10.64086914 45.9699707 C-9.63217751 41.23174482 -8.62936352 36.492296 -7.62808132 31.75249958 C-6.8560693 28.10182673 -6.0805975 24.45189548 -5.30409431 20.80217552 C-4.93251813 19.05324261 -4.56212722 17.30405745 -4.19293022 15.55462074 C-3.67964712 13.12458356 -3.16163102 10.69560372 -2.64233398 8.2668457 C-2.4901088 7.54123444 -2.33788361 6.81562317 -2.18104553 6.06802368 C-1.11420757 1.11420757 -1.11420757 1.11420757 0 0 Z " fill="#09638D" transform="translate(571,550)"/>
<path d="M0 0 C3 0.125 3 0.125 4 1.125 C5.77233816 1.18809599 7.54713913 1.18427863 9.3203125 1.15234375 C10.96 1.13397461 10.96 1.13397461 12.6328125 1.11523438 C14.93756825 1.08043102 17.24226526 1.04145562 19.546875 0.99804688 C32.43904581 0.86972902 32.43904581 0.86972902 37.875 4.3125 C41.57540653 10.27426607 39.46705486 17.26163992 38.06567383 23.62402344 C37.8479129 24.65766525 37.63015198 25.69130707 37.40579224 26.75627136 C36.68408858 30.16813237 35.94564083 33.57613749 35.20703125 36.984375 C34.69847749 39.37243879 34.1909819 41.76072815 33.68449402 44.14923096 C32.3467559 50.4439009 30.99484013 56.73544345 29.63989258 63.02642822 C28.27694729 69.36609442 26.92700621 75.70852555 25.57617188 82.05078125 C23.58508525 91.39315716 21.58674932 100.73393969 19.58129883 110.07324219 C17.36023817 120.41814065 15.16919438 130.76910875 13 141.125 C12.34 141.125 11.68 141.125 11 141.125 C11.3866666 130.80129245 13.96445552 120.99197303 16.375 111 C18.80438016 100.88083224 21.15307517 90.79932444 22.88520813 80.53503418 C24.22433031 72.64361199 25.87355229 64.82074932 27.53442383 56.99169922 C28.06929184 54.46795307 28.59836569 51.943037 29.12695312 49.41796875 C29.47101485 47.78638674 29.81540364 46.15487366 30.16015625 44.5234375 C30.31541275 43.78169281 30.47066925 43.03994812 30.63063049 42.27572632 C31.57775869 37.83159971 32.72434157 33.48905967 34 29.125 C34.57040383 26.61051338 35.11186608 24.08929581 35.625 21.5625 C35.88539063 20.30308594 36.14578125 19.04367187 36.4140625 17.74609375 C36.95557289 14.39955952 37.33869376 11.49742211 37 8.125 C35.46425493 6.11194452 34.56606916 5.23630663 32.0574379 4.74303246 C30.94694895 4.73806724 30.94694895 4.73806724 29.81402588 4.73300171 C28.5356485 4.71636223 28.5356485 4.71636223 27.23144531 4.6993866 C26.29945313 4.70239273 25.36746094 4.70539886 24.40722656 4.70849609 C23.42316833 4.69991074 22.43911011 4.69132538 21.42523193 4.68247986 C18.1636243 4.65733468 14.90232087 4.65303202 11.640625 4.6484375 C9.37480742 4.63413021 7.10899856 4.61837369 4.84320068 4.60122681 C-1.13161478 4.55929273 -7.10637624 4.53435602 -13.08129883 4.51373291 C-22.6309932 4.4779859 -32.1805537 4.41679445 -41.73011017 4.35524368 C-45.06419348 4.33619563 -48.39824126 4.32443201 -51.73236084 4.31381226 C-53.78479078 4.30359499 -55.83722003 4.29323664 -57.88964844 4.28271484 C-58.8135437 4.28167252 -59.73743896 4.28063019 -60.68933105 4.27955627 C-65.56391885 4.24877246 -70.19313656 3.94646617 -75 3.125 C-75 2.795 -75 2.465 -75 2.125 C-55.97559549 1.19998046 -37.00455583 1.03856237 -17.96166992 1.16210938 C-17.04416962 1.16633911 -16.12666931 1.17056885 -15.18136597 1.17492676 C-13.43884707 1.18315759 -11.69634176 1.19560744 -9.95388794 1.21276855 C-7.96906076 1.22116467 -5.98412168 1.17857785 -4 1.125 C-3 0.125 -3 0.125 0 0 Z " fill="#055D8A" transform="translate(596,407.875)"/>
<path d="M0 0 C68.64 0 137.28 0 208 0 C207.67 0.99 207.34 1.98 207 3 C188.88709691 3.02380536 170.7741981 3.04120474 152.66128254 3.05181217 C144.24317703 3.05687747 135.82508155 3.06375034 127.40698242 3.07543945 C84.59293845 3.13372649 41.80571113 2.89502782 -1 2 C-0.67 1.34 -0.34 0.68 0 0 Z " fill="#089EB9" transform="translate(344,479)"/>
<path d="M0 0 C0.33 0 0.66 0 1 0 C1.25058205 7.06573822 0.34812548 13.32841413 -1.15551758 20.22021484 C-1.38478439 21.30601334 -1.61405121 22.39181183 -1.8502655 23.51051331 C-2.60618802 27.07926497 -3.37513871 30.64506775 -4.14453125 34.2109375 C-4.67613916 36.70505938 -5.20702698 39.19933485 -5.73722839 41.6937561 C-6.84894942 46.91488737 -7.96640398 52.13473958 -9.08911133 57.35351562 C-10.52352554 64.02140077 -11.9465542 70.69166134 -13.36597157 77.36275291 C-14.46180454 82.51259086 -15.56195575 87.66150418 -16.66300011 92.81023026 C-17.1886395 95.26833034 -17.71368399 97.72655772 -18.23810768 100.18491745 C-18.97423689 103.63098777 -19.71462606 107.07611516 -20.45629883 110.52099609 C-20.66993073 111.52394211 -20.88356262 112.52688812 -21.10366821 113.56022644 C-26.41043512 138.10066802 -26.41043512 138.10066802 -35 146 C-40.10893524 149.21243656 -45.05890027 151.07174741 -51.10546875 151.31640625 C-52.57983398 151.37924805 -52.57983398 151.37924805 -54.08398438 151.44335938 C-55.10814453 151.48267578 -56.13230469 151.52199219 -57.1875 151.5625 C-58.22326172 151.60568359 -59.25902344 151.64886719 -60.32617188 151.69335938 C-62.8839819 151.79944366 -65.44188845 151.90150146 -68 152 C-67.48011284 146.06091173 -66.79846836 140.27152684 -65.5625 134.4375 C-65.31628906 133.23996094 -65.07007813 132.04242187 -64.81640625 130.80859375 C-64.54699219 129.88175781 -64.27757812 128.95492187 -64 128 C-63.01 127.505 -63.01 127.505 -62 127 C-62.48827713 134.47834967 -63.33405548 141.68925318 -65 149 C-47.97034465 148.84237977 -47.97034465 148.84237977 -33.50390625 140.796875 C-28.86442306 135.25359638 -27.62596803 129.01084191 -27 122 C-26.67 121.67 -26.34 121.34 -26 121 C-25.66923795 119.42436986 -25.38669942 117.83856139 -25.125 116.25 C-24.42946866 112.22888631 -23.62638397 108.26304873 -22.68359375 104.29296875 C-20.85409118 96.4476443 -19.17517033 88.5727305 -17.49783325 80.69381714 C-16.51958295 76.09996735 -15.53733837 71.50697272 -14.5546875 66.9140625 C-14.34934891 65.95429001 -14.14401031 64.99451752 -13.93244934 64.00566101 C-11.49920827 52.64453032 -9.0323926 41.29070953 -6.5625 29.9375 C-6.34753876 28.94896027 -6.13257751 27.96042053 -5.91110229 26.94192505 C-5.29653357 24.11615935 -4.68158136 21.2904775 -4.06640625 18.46484375 C-3.88655182 17.63838348 -3.70669739 16.81192322 -3.52139282 15.9604187 C-2.36137011 10.63718746 -1.18588851 5.31752785 0 0 Z " fill="#063B68" transform="translate(692,437)"/>
<path d="M0 0 C0 0.33 0 0.66 0 1 C-22.1950854 2.36084195 -44.39341686 2.04461873 -66.6173439 1.89946485 C-72.13053458 1.8646719 -77.64375892 1.83638574 -83.15698242 1.80735779 C-93.55788189 1.75163318 -103.95873922 1.69020481 -114.35959339 1.62663645 C-126.2172155 1.55444906 -138.07487096 1.48875843 -149.93253326 1.42356598 C-174.2883988 1.28951637 -198.64421223 1.14746255 -223 1 C-223 0.67 -223 0.34 -223 0 C-197.91112199 -0.15471117 -172.82221191 -0.3027133 -147.73324871 -0.4429636 C-136.08117822 -0.50825254 -124.42912737 -0.57564786 -112.77709961 -0.64819336 C-102.60837139 -0.71149828 -92.43962846 -0.77065612 -82.27084857 -0.82505554 C-76.8982467 -0.85393604 -71.52567306 -0.88474235 -66.15311241 -0.92053413 C-44.07646472 -1.06632354 -22.05417308 -1.1768512 0 0 Z " fill="#022F5B" transform="translate(675,339)"/>
<path d="M0 0 C0.33 0 0.66 0 1 0 C1.45587292 7.85475293 -0.24300233 15.21355598 -1.8515625 22.8671875 C-2.15123348 24.31150015 -2.45074022 25.75584689 -2.75009155 27.20022583 C-3.37811456 30.21890033 -4.01299008 33.23604411 -4.65185547 36.25244141 C-5.46342779 40.0903669 -6.25031773 43.93289755 -7.03109169 47.77718925 C-7.64123909 50.7604583 -8.26843147 53.73996312 -8.90018845 56.7187233 C-9.19723893 58.13263339 -9.48830292 59.54781666 -9.77287674 60.96429062 C-11.73809611 70.70035193 -14.33193345 79.9224309 -21.8125 86.9375 C-29.06909695 91.63294508 -36.06713314 92.43058093 -44.5625 92.1875 C-45.47580078 92.17396484 -46.38910156 92.16042969 -47.33007812 92.14648438 C-49.55403259 92.11155315 -51.77667952 92.06251586 -54 92 C-54 91.67 -54 91.34 -54 91 C-53.06317383 90.94054199 -53.06317383 90.94054199 -52.10742188 90.87988281 C-49.23678749 90.68758643 -46.36871692 90.46898602 -43.5 90.25 C-42.51773438 90.188125 -41.53546875 90.12625 -40.5234375 90.0625 C-33.29456246 89.48419 -27.62824864 88.05799345 -22.01171875 83.32421875 C-21.57472656 82.78410156 -21.13773438 82.24398437 -20.6875 81.6875 C-20.23761719 81.15511719 -19.78773438 80.62273437 -19.32421875 80.07421875 C-14.90500431 73.1520864 -14.0695475 66.14660625 -13 58.125 C-12.06663995 51.17225861 -11.1054724 44.567879 -8.70458984 37.95751953 C-6.18312604 30.95228851 -4.47998405 23.45356201 -5 16 C-4.34 16 -3.68 16 -3 16 C-2.814375 14.2675 -2.814375 14.2675 -2.625 12.5 C-2.09721115 8.21649625 -1.11601963 4.16647328 0 0 Z " fill="#07507B" transform="translate(606,550)"/>
<path d="M0 0 C6.38111208 0.85451414 10.40646705 4.79142923 14.3671875 9.69140625 C20.26000275 18.27254962 18.59176847 29.8024858 16.79296875 39.5703125 C16.27279041 42.09167817 15.73757758 44.60998807 15.1875 47.125 C14.92646484 48.37925781 14.66542969 49.63351562 14.39648438 50.92578125 C9.86280537 72.53072068 9.86280537 72.53072068 7 82 C6.67 82 6.34 82 6 82 C5.68869217 75.70928391 6.87310666 70.04187461 8.22265625 63.9140625 C8.68331458 61.74487061 9.14358919 59.57559719 9.60351562 57.40625 C10.33134817 54.01280747 11.06349953 50.62041661 11.80297852 47.22949219 C12.51753707 43.93932156 13.21481338 40.64583968 13.91015625 37.3515625 C14.13405533 36.34815826 14.35795441 35.34475403 14.58863831 34.3109436 C16.58572237 24.76099056 16.2137233 17.62764721 10.8984375 9.3046875 C8.27385323 6.1184638 5.30292164 4.12364907 1.7578125 2.05859375 C1.17773438 1.70925781 0.59765625 1.35992187 0 1 C0 0.67 0 0.34 0 0 Z " fill="#06618C" transform="translate(568,457)"/>
<path d="M0 0 C7.65617198 0.47851075 13.07669648 3.67723883 18.3125 9.25 C23.69748244 16.0435882 24.70153873 23.5649582 24 32 C23.03010302 37.58891488 21.77966681 43.10022565 20.5 48.625 C20.16178287 50.12087306 19.82453559 51.61696575 19.48828125 53.11328125 C18.67001511 56.74478666 17.83868165 60.37314796 17 64 C16.67 64 16.34 64 16 64 C15.61807053 56.02722233 17.40984875 48.83390142 19.22265625 41.10742188 C21.61361423 30.38909883 22.33182679 21.82690704 17 12 C16.70867188 11.29746094 16.41734375 10.59492188 16.1171875 9.87109375 C14.69374471 7.48707593 13.55384919 7.04475649 11 6 C10.07703125 5.57460938 9.1540625 5.14921875 8.203125 4.7109375 C7.22859375 4.27007812 6.2540625 3.82921875 5.25 3.375 C4.26515625 2.92898438 3.2803125 2.48296875 2.265625 2.0234375 C1.51796875 1.68570312 0.7703125 1.34796875 0 1 C0 0.67 0 0.34 0 0 Z " fill="#063F6D" transform="translate(638,385)"/>
<path d="M0 0 C3.29845968 0.56869994 4.85199759 1.43771092 7 4 C8.9349593 12.32119267 6.90926802 19.87191833 5.0625 28.0625 C4.76759682 29.41834128 4.47396664 30.77446011 4.18164062 32.13085938 C3.4668653 35.42351291 2.7393734 38.71279876 2 42 C0.39161483 39.51451621 -0.02367558 38.26080455 0.24780273 35.27026367 C0.47411377 34.24650635 0.7004248 33.22274902 0.93359375 32.16796875 C1.17013672 31.03939453 1.40667969 29.91082031 1.65039062 28.74804688 C1.91013672 27.57306641 2.16988281 26.39808594 2.4375 25.1875 C4.9468848 15.11930188 4.9468848 15.11930188 4 5 C2.0431712 3.17662247 2.0431712 3.17662247 0 2 C0 1.34 0 0.68 0 0 Z " fill="#0781A7" transform="translate(551,480)"/>
<path d="M0 0 C0.33 0 0.66 0 1 0 C1.11844242 4.69624182 0.78348173 8.85829639 -0.25 13.4375 C-0.51941406 14.63503906 -0.78882813 15.83257813 -1.06640625 17.06640625 C-2.63173632 23.73053134 -4.3033157 30.36828981 -6 37 C-6.33 37 -6.66 37 -7 37 C-7.45964873 29.2446502 -5.7431782 22.10439918 -4.0625 14.5625 C-3.78123026 13.25860806 -3.50062587 11.95457241 -3.22070312 10.65039062 C-1.14299402 1.14299402 -1.14299402 1.14299402 0 0 Z " fill="#065884" transform="translate(571,550)"/>
<path d="M0 0 C0.495 1.485 0.495 1.485 1 3 C-2.51681563 9.90600489 -7.64248915 13.14574007 -14.5703125 16.09375 C-19.21958121 17.32225836 -23.5911384 17.21371641 -28.375 17.125 C-29.76525391 17.11146484 -29.76525391 17.11146484 -31.18359375 17.09765625 C-33.45600077 17.07422937 -35.7278618 17.04142748 -38 17 C-38 16.67 -38 16.34 -38 16 C-37.37544922 15.96036133 -36.75089844 15.92072266 -36.10742188 15.87988281 C-33.23678749 15.68758643 -30.36871692 15.46898602 -27.5 15.25 C-26.51773438 15.188125 -25.53546875 15.12625 -24.5234375 15.0625 C-17.28131677 14.48313034 -11.47779253 13.12195661 -5.9765625 8.18359375 C-5.30753906 7.31927734 -5.30753906 7.31927734 -4.625 6.4375 C-4.16351562 5.85871094 -3.70203125 5.27992188 -3.2265625 4.68359375 C-2.11023455 3.15130921 -1.05160449 1.57740673 0 0 Z " fill="#094870" transform="translate(590,625)"/>
<path d="M0 0 C0.33 0 0.66 0 1 0 C0.48659098 8.51955053 -1.04052585 16.62629671 -2.9375 24.9375 C-3.20240234 26.14212891 -3.46730469 27.34675781 -3.74023438 28.58789062 C-5.91191422 38.24997985 -5.91191422 38.24997985 -8 42 C-8.14645476 36.48978301 -7.71193418 31.7039858 -6.50390625 26.2890625 C-6.35090561 25.59485199 -6.19790497 24.90064148 -6.04026794 24.18539429 C-5.71884275 22.73421152 -5.39344821 21.28390258 -5.06420898 19.83447266 C-4.55944843 17.61156122 -4.0668064 15.38622399 -3.57617188 13.16015625 C-1.1661162 2.33223239 -1.1661162 2.33223239 0 0 Z " fill="#0C99AE" transform="translate(306,584)"/>
<path d="M0 0 C0.66 0.33 1.32 0.66 2 1 C1.0577996 7.19446643 0.06239341 13.07061896 -2 19 C-2.7346113 22.32084559 -3.37882815 25.65624514 -4 29 C-4.33 29 -4.66 29 -5 29 C-5.19676277 20.70316995 -5.25943749 13.04924606 -3 5 C-2.34 5 -1.68 5 -1 5 C-0.67 3.35 -0.34 1.7 0 0 Z " fill="#036E9B" transform="translate(566,579)"/>
<path d="M0 0 C0.33 0 0.66 0 1 0 C1.59468688 8.32561631 -0.8150348 13.45169135 -5.9375 19.9375 C-8.00823637 22.25588169 -8.83516678 22.94625004 -11.875 23.9375 C-12.57625 23.958125 -13.2775 23.97875 -14 24 C-13.278125 23.29875 -12.55625 22.5975 -11.8125 21.875 C-11.35617187 21.40835938 -10.89984375 20.94171875 -10.4296875 20.4609375 C-9.11856312 19.12115466 -7.7792934 17.80906673 -6.4375 16.5 C-2.59520179 11.90383316 -1.50591735 5.67032568 0 0 Z " fill="#07335B" transform="translate(666,560)"/>
<path d="M0 0 C2.48952969 3.73429453 2.00544725 4.80670017 1.25 9.125 C1.05148437 10.27613281 0.85296875 11.42726563 0.6484375 12.61328125 C-0.14698343 16.76767852 -1.02342438 20.88443131 -2 25 C-2.66 24.67 -3.32 24.34 -4 24 C-3.35588614 18.44686304 -2.49942196 12.98744364 -1.4375 7.5 C-1.22963867 6.40945313 -1.22963867 6.40945313 -1.01757812 5.296875 C-0.68063335 3.53081963 -0.34064317 1.76534574 0 0 Z " fill="#086994" transform="translate(584,483)"/>
<path d="M0 0 C0.33 0 0.66 0 1 0 C0.5697663 7.6700283 -0.74231361 14.65896942 -3 22 C-3.33 22 -3.66 22 -4 22 C-4.14858539 16.97393753 -3.6552322 12.52922394 -2.5625 7.625 C-2.29566406 6.40039062 -2.02882813 5.17578125 -1.75390625 3.9140625 C-1 1 -1 1 0 0 Z " fill="#063F6D" transform="translate(644,493)"/>
<path d="M0 0 C1.99954746 -0.04254356 4.00041636 -0.04080783 6 0 C6.33 0.33 6.66 0.66 7 1 C8.77869726 1.15764405 10.56318476 1.25100677 12.34765625 1.31640625 C13.42724609 1.35830078 14.50683594 1.40019531 15.61914062 1.44335938 C17.32360352 1.50233398 17.32360352 1.50233398 19.0625 1.5625 C20.20267578 1.60568359 21.34285156 1.64886719 22.51757812 1.69335938 C25.34492195 1.79982839 28.17235738 1.90184207 31 2 C31 2.33 31 2.66 31 3 C20.77 3 10.54 3 0 3 C0 2.01 0 1.02 0 0 Z " fill="#065483" transform="translate(593,408)"/>
<path d="M0 0 C0.33 0 0.66 0 1 0 C0.88521587 2.06309376 0.75773802 4.12548354 0.625 6.1875 C0.55539062 7.33605469 0.48578125 8.48460937 0.4140625 9.66796875 C0.02490426 12.79959117 -0.6809851 15.15285809 -2 18 C-2.33 18 -2.66 18 -3 18 C-3.2549878 12.1352807 -2.4918552 6.68429498 -1 1 C-0.67 0.67 -0.34 0.34 0 0 Z " fill="#043C69" transform="translate(633,545)"/>
<path d="M0 0 C2.23551759 3.35327639 2.17283528 3.90743657 1.625 7.6875 C1.51414062 8.49574219 1.40328125 9.30398438 1.2890625 10.13671875 C1.19367187 10.75160156 1.09828125 11.36648438 1 12 C0.01 12 -0.98 12 -2 12 C-2.21278058 7.53160785 -1.59138085 4.17737474 0 0 Z " fill="#036694" transform="translate(597,589)"/>
<path d="M0 0 C0.66 0.33 1.32 0.66 2 1 C2.08159574 5.16138263 1.98248524 8.9472484 1 13 C0.01 13 -0.98 13 -2 13 C-2.042721 11.33388095 -2.04063832 9.66617115 -2 8 C-1.67 7.67 -1.34 7.34 -1 7 C-0.63239269 4.67182036 -0.29758419 2.3381615 0 0 Z " fill="#05416E" transform="translate(667,551)"/>
<path d="M0 0 C0.33 0 0.66 0 1 0 C1.19294408 4.82360189 0.75747614 8.49646738 -1 13 C-1.33 13 -1.66 13 -2 13 C-2.16682272 8.07872966 -2.24828052 4.49656104 0 0 Z " fill="#053C6B" transform="translate(636,531)"/>
<path d="M0 0 C0.33 0 0.66 0 1 0 C1.1799928 5.21979128 0.97094808 9.07262981 -1 14 C-1.33 14 -1.66 14 -2 14 C-2.21192221 8.80790596 -1.5912689 4.873261 0 0 Z " fill="#073660" transform="translate(683,480)"/>
<path d="M0 0 C0.33 0 0.66 0 1 0 C1.1799928 5.21979128 0.97094808 9.07262981 -1 14 C-1.33 14 -1.66 14 -2 14 C-2.1799928 8.78020872 -1.97094808 4.92737019 0 0 Z " fill="#073C6A" transform="translate(647,478)"/>
<path d="M0 0 C0.66 0.33 1.32 0.66 2 1 C-0.64 4.63 -3.28 8.26 -6 12 C-6.33 11.01 -6.66 10.02 -7 9 C-5.8203125 6.9921875 -5.8203125 6.9921875 -4.125 4.875 C-3.57070313 4.17117188 -3.01640625 3.46734375 -2.4453125 2.7421875 C-1 1 -1 1 0 0 Z " fill="#0B8DA6" transform="translate(368,415)"/>
<path d="M0 0 C0.33 0 0.66 0 1 0 C1.19294408 4.82360189 0.75747614 8.49646738 -1 13 C-1.33 13 -1.66 13 -2 13 C-2.16682272 8.07872966 -2.24828052 4.49656104 0 0 Z " fill="#074F7A" transform="translate(421,363)"/>
<path d="M0 0 C0.66 0.33 1.32 0.66 2 1 C-0.64 3.64 -3.28 6.28 -6 9 C-6.33 8.34 -6.66 7.68 -7 7 C-2.25 1.125 -2.25 1.125 0 0 Z " fill="#084C78" transform="translate(432,343)"/>
<path d="M0 0 C2 3 2 3 1.75 5.9375 C1.09911834 8.59526679 0.35855538 10.64517067 -1 13 C-1.07654536 8.48382401 -1.10228696 4.40914783 0 0 Z " fill="#075D87" transform="translate(555,621)"/>
<path d="M0 0 C0.66 0.66 1.32 1.32 2 2 C1.9765625 4.3828125 1.9765625 4.3828125 1.625 7.125 C1.51414062 8.03507813 1.40328125 8.94515625 1.2890625 9.8828125 C1.19367187 10.58148437 1.09828125 11.28015625 1 12 C-1.58464442 7.61991557 -0.81479148 4.88874887 0 0 Z " fill="#076592" transform="translate(567,565)"/>
<path d="M0 0 C1.5625 1.25 1.5625 1.25 3 3 C2.6875 5.1875 2.6875 5.1875 2 7 C2.99 7.33 3.98 7.66 5 8 C3.02 8 1.04 8 -1 8 C-0.67 5.36 -0.34 2.72 0 0 Z " fill="#0AA6BC" transform="translate(355,447)"/>
<path d="M0 0 C2.58464442 4.38008443 1.81479148 7.11125113 1 12 C-1.23551759 8.64672361 -1.17283528 8.09256343 -0.625 4.3125 C-0.51414062 3.50425781 -0.40328125 2.69601562 -0.2890625 1.86328125 C-0.19367187 1.24839844 -0.09828125 0.63351562 0 0 Z " fill="#0583AA" transform="translate(535,591)"/>
<path d="M0 0 C0.66 0.66 1.32 1.32 2 2 C1.96712417 4.72869407 1.43602229 7.2966618 1 10 C-2 6.25 -2 6.25 -2 4 C-1.34 4 -0.68 4 0 4 C0 2.68 0 1.36 0 0 Z " fill="#055E8A" transform="translate(603,562)"/>
<path d="M0 0 C0.66 0.66 1.32 1.32 2 2 C1.96712417 4.72869407 1.43602229 7.2966618 1 10 C0.34 9.67 -0.32 9.34 -1 9 C-0.67 6.03 -0.34 3.06 0 0 Z " fill="#077EA5" transform="translate(548,530)"/>
<path d="M0 0 C0.66 0.99 1.32 1.98 2 3 C1.125 6.6875 1.125 6.6875 0 10 C-0.33 10 -0.66 10 -1 10 C-0.67 6.7 -0.34 3.4 0 0 Z " fill="#074A75" transform="translate(625,579)"/>
<path d="" fill="#1BAEBB" transform="translate(0,0)"/>
<path d="M0 0 C2 1 2 1 2 1 Z " fill="#105F88" transform="translate(641,589)"/>
<path d="" fill="#0A5A88" transform="translate(0,0)"/>
<path d="" fill="#1AB2BF" transform="translate(0,0)"/>
<path d="M0 0 C2 1 2 1 2 1 Z " fill="#0E87B2" transform="translate(602,408)"/>
<path d="M0 0 C2 1 2 1 2 1 Z " fill="#11A1C0" transform="translate(450,408)"/>
<path d="M0 0 C2 1 2 1 2 1 Z " fill="#10A8C2" transform="translate(422,408)"/>
<path d="M0 0 C2 1 2 1 2 1 Z " fill="#13A8C5" transform="translate(409,408)"/>
<path d="M0 0 C2 1 2 1 2 1 Z " fill="#15A9C0" transform="translate(402,408)"/>
<path d="M0 0 C2 1 2 1 2 1 Z " fill="#16ACC1" transform="translate(385,408)"/>
<path d="" fill="#252D2B" transform="translate(0,0)"/>
<path d="" fill="#1BB1BB" transform="translate(0,0)"/>
<path d="" fill="#14779C" transform="translate(0,0)"/>
<path d="" fill="#19B9C5" transform="translate(0,0)"/>
<path d="" fill="#0E9CBF" transform="translate(0,0)"/>
<path d="" fill="#108AB2" transform="translate(0,0)"/>
<path d="" fill="#18BAC6" transform="translate(0,0)"/>
<path d="" fill="#1ABCCB" transform="translate(0,0)"/>
<path d="" fill="#0C9DBF" transform="translate(0,0)"/>
<path d="" fill="#108BB2" transform="translate(0,0)"/>
<path d="" fill="#1ABCC8" transform="translate(0,0)"/>
<path d="" fill="#109DC1" transform="translate(0,0)"/>
<path d="" fill="#118CB3" transform="translate(0,0)"/>
<path d="" fill="#19BBC8" transform="translate(0,0)"/>
<path d="" fill="#1077A1" transform="translate(0,0)"/>
<path d="" fill="#0F8DB6" transform="translate(0,0)"/>
<path d="" fill="#105983" transform="translate(0,0)"/>
<path d="" fill="#0C5A83" transform="translate(0,0)"/>
<path d="" fill="#10A1C4" transform="translate(0,0)"/>
<path d="" fill="#0D6995" transform="translate(0,0)"/>
<path d="" fill="#1CBFC8" transform="translate(0,0)"/>
<path d="" fill="#0C77A4" transform="translate(0,0)"/>
<path d="" fill="#085985" transform="translate(0,0)"/>
<path d="" fill="#0F97BC" transform="translate(0,0)"/>
<path d="" fill="#1DBBC8" transform="translate(0,0)"/>
<path d="" fill="#1EBCC5" transform="translate(0,0)"/>
<path d="" fill="#1092BA" transform="translate(0,0)"/>
<path d="" fill="#085B89" transform="translate(0,0)"/>
<path d="" fill="#0C93B9" transform="translate(0,0)"/>
<path d="" fill="#0D90B7" transform="translate(0,0)"/>
<path d="" fill="#1EB2C1" transform="translate(0,0)"/>
<path d="" fill="#1EB2BD" transform="translate(0,0)"/>
<path d="" fill="#17ABBA" transform="translate(0,0)"/>
<path d="" fill="#0D5F8B" transform="translate(0,0)"/>
<path d="" fill="#0B6797" transform="translate(0,0)"/>
<path d="" fill="#0F86AF" transform="translate(0,0)"/>
<path d="" fill="#0E8DB5" transform="translate(0,0)"/>
<path d="" fill="#108EB6" transform="translate(0,0)"/>
<path d="" fill="#118EB5" transform="translate(0,0)"/>
<path d="" fill="#0F93B9" transform="translate(0,0)"/>
<path d="" fill="#129CBD" transform="translate(0,0)"/>
<path d="" fill="#129BBD" transform="translate(0,0)"/>
<path d="" fill="#109CBF" transform="translate(0,0)"/>
<path d="" fill="#11A1C0" transform="translate(0,0)"/>
<path d="" fill="#14A0C0" transform="translate(0,0)"/>
<path d="" fill="#12A0C2" transform="translate(0,0)"/>
<path d="" fill="#13A0BF" transform="translate(0,0)"/>
<path d="" fill="#14A3C2" transform="translate(0,0)"/>
<path d="" fill="#13A8C0" transform="translate(0,0)"/>
<path d="" fill="#15AAC1" transform="translate(0,0)"/>
<path d="" fill="#15ADC3" transform="translate(0,0)"/>
<path d="" fill="#15ABC1" transform="translate(0,0)"/>
<path d="" fill="#17A8BE" transform="translate(0,0)"/>
<path d="" fill="#095E8D" transform="translate(0,0)"/>
<path d="" fill="#0A6999" transform="translate(0,0)"/>
<path d="" fill="#188BAB" transform="translate(0,0)"/>
<path d="" fill="#115A84" transform="translate(0,0)"/>
<path d="" fill="#157397" transform="translate(0,0)"/>
<path d="" fill="#135A81" transform="translate(0,0)"/>
<path d="" fill="#106C95" transform="translate(0,0)"/>
<path d="" fill="#117196" transform="translate(0,0)"/>
<path d="" fill="#282A2A" transform="translate(0,0)"/>
</svg>
